# Blender v2.79 (sub 0) OBJ File: 'turnhalle.blend'
# www.blender.org
mtllib turnhalle.mtl
o linke_Wand_Plane.004
v -27.000000 0.000000 13.500000
v 27.000000 0.000000 13.500000
v -27.000000 12.000000 13.500000
v 27.000000 12.000000 13.500000
vt 0.000100 0.999900
vt 0.999900 0.000100
vt 0.000100 0.000100
vt 0.999900 0.999900
vn 0.0000 0.0000 -1.0000
usemtl Material.005
s off
f 3/1/1 2/2/1 1/3/1
f 3/1/1 4/4/1 2/2/1
o Vorderwand_Plane.003
v 27.000000 12.000000 13.500000
v 27.000000 0.000000 13.500000
v 27.000000 12.000000 -13.500000
v 27.000000 0.000000 -13.500000
vt 0.999900 0.999900
vt 0.000100 0.000100
vt 0.000100 0.999900
vt 0.999900 0.000100
vn 1.0000 0.0000 0.0000
usemtl Material.006
s off
f 6/5/2 7/6/2 5/7/2
f 6/5/2 8/8/2 7/6/2
o Rückwand_Plane.002
v -27.000000 12.000000 13.500000
v -27.000000 0.000000 13.500000
v -27.000000 12.000000 -13.500000
v -27.000000 0.000000 -13.500000
vt 0.000100 0.999900
vt 0.999900 0.000100
vt 0.000100 0.000100
vt 0.999900 0.999900
vn -1.0000 0.0000 0.0000
usemtl Material.004
s off
f 11/9/3 10/10/3 9/11/3
f 11/9/3 12/12/3 10/10/3
o rechte_Wand_Plane.001
v -27.000000 0.000000 -13.500000
v 27.000000 0.000000 -13.500000
v -27.000000 12.000000 -13.500000
v 27.000000 12.000000 -13.500000
vt 0.000100 0.999900
vt 0.999900 0.000100
vt 0.000100 0.000100
vt 0.999900 0.999900
vn 0.0000 0.0000 -1.0000
usemtl Material.002
s off
f 15/13/4 14/14/4 13/15/4
f 15/13/4 16/16/4 14/14/4
o Boden_Plane
v -27.000000 0.000000 13.500000
v 27.000000 0.000000 13.500000
v -27.000000 0.000000 -13.500000
v 27.000000 0.000000 -13.500000
vt 0.000100 0.999900
vt 0.999900 0.000100
vt 0.000100 0.000100
vt 0.999900 0.999900
vn 0.0000 -1.0000 0.0000
usemtl Material.001
s off
f 19/17/5 18/18/5 17/19/5
f 19/17/5 20/20/5 18/18/5
o Decke_Plane.006
v -27.000000 12.000000 13.500000
v 27.000000 12.000000 13.500000
v -27.000000 12.000000 -13.500000
v 27.000000 12.000000 -13.500000
vt 0.999900 0.999900
vt 0.000100 0.000100
vt 0.000100 0.999900
vt 0.999900 0.000100
vn 0.0000 1.0000 0.0000
usemtl Material.009
s off
f 22/21/6 23/22/6 21/23/6
f 22/21/6 24/24/6 23/22/6
