# Blender v2.79 (sub 0) OBJ File: 'turnhalle.blend'
# www.blender.org
mtllib turnhalle.mtl
o linke_Wand_Plane.004
v -27.000000 0.000000 13.500000
v 27.000000 0.000000 13.500000
v -27.000000 12.000000 13.500000
v 27.000000 12.000000 13.500000
vt 0.000100 0.000100
vt 0.999900 0.999900
vt 0.000100 0.999900
vt 0.999900 0.000100
vn 0.0000 0.0000 -1.0000
usemtl Material.005
s off
f 3/1/1 2/2/1 1/3/1
f 3/1/1 4/4/1 2/2/1
o Vorderwand_Plane.003
v 27.000000 12.000000 13.500000
v 27.000000 0.000000 13.500000
v 27.000000 12.000000 -13.500000
v 27.000000 0.000000 -13.500000
vt 0.000100 0.999900
vt 0.999900 0.000100
vt 0.000100 0.000100
vt 0.999900 0.999900
vn -1.0000 0.0000 0.0000
usemtl Material.006
s off
f 7/5/2 6/6/2 5/7/2
f 7/5/2 8/8/2 6/6/2
o Rückwand_Plane.002
v -27.000000 12.000000 13.500000
v -27.000000 0.000000 13.500000
v -27.000000 12.000000 -13.500000
v -27.000000 0.000000 -13.500000
vt 0.999900 0.999900
vt 0.000100 0.000100
vt 0.000100 0.999900
vt 0.999900 0.000100
vn 1.0000 0.0000 0.0000
usemtl Material.004
s off
f 10/9/3 11/10/3 9/11/3
f 10/9/3 12/12/3 11/10/3
o rechte_Wand_Plane.001
v -27.000000 0.000000 -13.500000
v 27.000000 0.000000 -13.500000
v -27.000000 12.000000 -13.500000
v 27.000000 12.000000 -13.500000
v -5.000000 10.000000 -13.500000
v 5.000000 10.000000 -13.500000
v -5.000003 7.111112 -13.500000
v -5.000000 6.000000 -13.500000
v 5.000000 6.000000 -13.500000
vt 0.000100 0.000100
vt 0.407426 0.500000
vt 0.999900 0.000100
vt 0.407426 0.833267
vt 0.000100 0.999900
vt 0.999900 0.999900
vt 0.407426 0.592574
vt 0.592574 0.500000
vt 0.592574 0.833267
vn 0.0000 0.0000 -1.0000
usemtl Material.002
s off
f 13/13/4 20/14/4 14/15/4
f 17/16/4 15/17/4 16/18/4
f 13/13/4 15/17/4 20/14/4
f 15/17/4 19/19/4 20/14/4
f 20/14/4 21/20/4 14/15/4
f 16/18/4 14/15/4 21/20/4
f 16/18/4 21/20/4 18/21/4
f 17/16/4 19/19/4 15/17/4
f 16/18/4 18/21/4 17/16/4
o Boden_Plane
v -27.000000 0.000000 13.500000
v 27.000000 0.000000 13.500000
v -27.000000 0.000000 -13.500000
v 27.000000 0.000000 -13.500000
vt 0.999900 0.999900
vt 0.000100 0.000100
vt 0.000100 0.999900
vt 0.999900 0.000100
vn 0.0000 1.0000 0.0000
usemtl Material.001
s off
f 23/22/5 24/23/5 22/24/5
f 23/22/5 25/25/5 24/23/5
o Decke_Plane.006
v -27.000000 12.000000 13.500000
v 27.000000 12.000000 13.500000
v -27.000000 12.000000 -13.500000
v 27.000000 12.000000 -13.500000
vt 0.000100 0.999900
vt 0.999900 0.000100
vt 0.000100 0.000100
vt 0.999900 0.999900
vn 0.0000 -1.0000 0.0000
usemtl Material.009
s off
f 28/26/6 27/27/6 26/28/6
f 28/26/6 29/29/6 27/27/6
